<?xml version="1.0" encoding="utf-8"?>
<!-- Generator: Adobe Illustrator 26.0.1, SVG Export Plug-In . SVG Version: 6.00 Build 0)  -->
<svg version="1.1" id="Layer_1" xmlns="http://www.w3.org/2000/svg" xmlns:xlink="http://www.w3.org/1999/xlink" x="0px" y="0px"
	 viewBox="0 0 792 612" style="enable-background:new 0 0 792 612;" xml:space="preserve">
<style type="text/css">
	.st0{fill:#C22128;}
</style>
<g>
	<g>
		<path d="M268.38,251.08h15.82v98.49h-15.82V251.08z"/>
		<path d="M371.2,349.57h-15.67v-43.72c0-10.15-6.42-17.01-15.97-17.01c-9.7,0-16.71,7.01-16.71,17.01v43.72h-15.67V276.3h14.62
			v7.16c5.52-5.82,12.83-8.8,21.94-8.8c17.16,0,27.46,11.64,27.46,29.1V349.57z"/>
		<path d="M464.46,237.65v111.92h-14.62v-10.45c-5.37,7.61-14.77,12.09-25.67,12.09c-20.59,0-35.82-16.56-35.82-38.2
			c-0.45-21.34,15.52-38.8,35.82-38.35c10.15,0,18.95,3.88,24.47,10.6v-47.6H464.46z M426.85,288.99
			c-12.54,0-22.53,9.85-22.53,23.88s9.55,24.03,22.53,24.03c11.49,0,22.09-7.91,22.09-23.88
			C448.94,297.19,438.2,288.99,426.85,288.99z"/>
		<path d="M495.05,238.55c5.82,0,10.6,4.63,10.6,10.45c0,5.82-4.78,10.3-10.6,10.3c-5.97,0-10.74-4.48-10.74-10.3
			C484.3,243.17,489.08,238.55,495.05,238.55z M487.14,276.3h15.67v73.27h-15.67V276.3z"/>
		<path class="st0" d="M564.59,351.07c-12.09,0-23.58-5.82-29.1-15.37v40.74h-7.46v-98.94h7.16v14.47
			c5.37-9.7,16.86-15.97,29.4-15.97c20.15,0,35.82,16.71,35.82,37.46C600.4,334.5,584.73,351.07,564.59,351.07z M563.84,283.02
			c-14.92,0-28.35,9.85-28.35,30.44c0,20.74,13.43,30.59,28.35,30.59c16.56,0,28.8-13.13,28.8-30.44
			C592.64,296.45,580.4,283.02,563.84,283.02z"/>
		<path class="st0" d="M626.36,243.17c3.58,0,6.57,2.98,6.57,6.57c0,3.58-2.98,6.57-6.57,6.57c-3.73,0-6.57-2.98-6.57-6.57
			C619.8,246.16,622.63,243.17,626.36,243.17z M622.63,277.49h7.46v72.08h-7.46V277.49z"/>
		<path class="st0" d="M702.77,349.57l-22.98-32.23l-22.98,32.23h-8.95l27.31-37.9l-25.07-34.17h8.95l20.59,28.95l20.89-28.95h8.95
			l-25.37,34.47l27.61,37.61H702.77z"/>
	</g>
	<g>
		<path d="M174.99,356.31c0-12.28,0.06-23.38-0.02-34.48c-0.08-12.35-7.03-20.44-17.2-20.17c-10.12,0.26-16.65,7.9-16.71,19.83
			c-0.07,16.28,0.34,32.57-0.22,48.84c-0.15,4.42-1.99,9.62-4.83,12.96c-14.21,16.67-32.5,25.11-55.1,25.68
			c-0.24-3.26-0.59-5.74-0.59-8.23c-0.01-39.7-0.13-79.41,0.08-119.11c0.21-41.76,29.82-74.11,71.22-78.22
			c38.69-3.84,74.63,23.51,82.79,63.02c7.72,37.37-15.76,77.23-52.2,88.51C180.36,355.5,178.39,355.67,174.99,356.31z M174.93,273.2
			c-0.15-9.01-8.28-16.81-17.28-16.59c-9,0.22-16.84,8.41-16.59,17.32c0.25,9.02,8.5,16.9,17.33,16.58
			C167.62,290.16,175.08,282.36,174.93,273.2z"/>
		<path class="st0" d="M174.93,273.2c0.15,9.16-7.3,16.96-16.54,17.3c-8.83,0.33-17.07-7.56-17.33-16.58
			c-0.25-8.91,7.6-17.1,16.59-17.32C166.65,256.39,174.78,264.19,174.93,273.2z"/>
	</g>
</g>
</svg>
