<svg width="167" height="54" viewBox="0 0 167 54" fill="none" xmlns="http://www.w3.org/2000/svg">
<path d="M57.6992 39.9534H52.3203V14.0433H57.6992V39.9534ZM72.9746 20.3362C74.9551 20.3362 76.5723 20.8577 77.8262 21.9007C79.0918 22.9319 79.7246 24.6487 79.7246 27.0511V39.9534H74.5918V28.2991C74.5918 27.2913 74.457 26.5179 74.1875 25.9788C73.6953 24.9944 72.7578 24.5023 71.375 24.5023C69.6758 24.5023 68.5098 25.223 67.877 26.6644C67.5488 27.4261 67.3848 28.3987 67.3848 29.5823V39.9534H62.3926V20.8284H67.2266V23.6234C67.8711 22.639 68.4805 21.93 69.0547 21.4964C70.0859 20.723 71.3926 20.3362 72.9746 20.3362ZM91.4316 20.3362C92.5918 20.3362 93.623 20.5941 94.5254 21.1097C95.4277 21.6136 96.1602 22.3167 96.7227 23.2191V14.0784H101.803V39.9534H96.9336V37.2991C96.2188 38.4359 95.4043 39.262 94.4902 39.7776C93.5762 40.2933 92.4395 40.5511 91.0801 40.5511C88.8418 40.5511 86.9551 39.6487 85.4199 37.8441C83.8965 36.0276 83.1348 33.7015 83.1348 30.8655C83.1348 27.596 83.8848 25.0237 85.3848 23.1487C86.8965 21.2737 88.9121 20.3362 91.4316 20.3362ZM92.5215 36.3323C93.9395 36.3323 95.0176 35.805 95.7559 34.7503C96.4941 33.6956 96.8633 32.3304 96.8633 30.6546C96.8633 28.3109 96.2715 26.6351 95.0879 25.6273C94.3613 25.0179 93.5176 24.7132 92.5566 24.7132C91.0918 24.7132 90.0137 25.2698 89.3223 26.3831C88.6426 27.4847 88.3027 28.8558 88.3027 30.4964C88.3027 32.2659 88.6484 33.6839 89.3398 34.7503C90.043 35.805 91.1035 36.3323 92.5215 36.3323ZM111.523 18.5081H106.443V13.8851H111.523V18.5081ZM106.443 20.7933H111.523V39.9534H106.443V20.7933Z" fill="white"/>
<path d="M129.594 30.3734C129.594 28.8968 129.254 27.5901 128.574 26.4534C127.906 25.3167 126.816 24.7484 125.305 24.7484C123.488 24.7484 122.24 25.6097 121.561 27.3323C121.209 28.2464 121.033 29.4066 121.033 30.8128C121.033 33.0394 121.625 34.6038 122.809 35.5062C123.512 36.0335 124.344 36.2972 125.305 36.2972C126.699 36.2972 127.76 35.7581 128.486 34.68C129.225 33.6019 129.594 32.1663 129.594 30.3734ZM126.746 20.3714C128.984 20.3714 130.877 21.1976 132.424 22.8499C133.982 24.5023 134.762 26.928 134.762 30.1273C134.762 33.5023 134 36.0745 132.477 37.8441C130.965 39.6136 129.014 40.4984 126.623 40.4984C125.1 40.4984 123.834 40.1175 122.826 39.3558C122.275 38.9339 121.736 38.3187 121.209 37.5101V47.4944H116.252V20.7933H121.051V23.6234C121.59 22.7913 122.164 22.1351 122.773 21.6546C123.887 20.7991 125.211 20.3714 126.746 20.3714ZM143.551 18.5081H138.471V13.8851H143.551V18.5081ZM138.471 20.7933H143.551V39.9534H138.471V20.7933ZM146.539 39.9534L153.078 30.2503L146.82 20.8284H152.955L156.154 26.3831L159.283 20.8284H165.242L158.949 30.1624L165.488 39.9534H159.248L155.943 34.2054L152.621 39.9534H146.539Z" fill="#C22128"/>
<path d="M25.001 40.1918C25.001 36.9734 25.0172 34.0614 24.9982 31.1493C24.9766 27.9095 23.1403 25.7899 20.4575 25.8597C17.7856 25.9296 16.0601 27.9336 16.0466 31.0606C16.0277 35.3294 16.1359 39.6035 15.9898 43.8668C15.9493 45.0247 15.4652 46.3921 14.7133 47.2651C10.9623 51.6359 6.13492 53.8496 0.16897 54C0.104064 53.1457 0.0121128 52.4929 0.0121128 51.8401C0.0094084 41.4275 -0.0230447 31.0177 0.0310437 20.6051C0.0878365 9.65523 7.90361 1.1715 18.8322 0.0942483C29.0468 -0.91316 38.5312 6.25959 40.6866 16.6211C42.7257 26.4212 36.5245 36.8714 26.9076 39.8318C26.4181 39.9796 25.8988 40.0252 25.001 40.1918ZM24.9847 18.3968C24.9442 16.0355 22.7996 13.9884 20.4224 14.0448C18.0479 14.1039 15.9763 16.2504 16.0412 18.5849C16.1088 20.9489 18.2832 23.0175 20.6144 22.9315C23.0565 22.8456 25.0253 20.8012 24.9847 18.3968Z" fill="white"/>
<path d="M24.9843 18.3968C25.0249 20.7985 23.056 22.8429 20.6167 22.9342C18.2854 23.0202 16.1084 20.9516 16.0435 18.5876C15.9786 16.2504 18.0475 14.1039 20.4246 14.0475C22.7991 13.9884 24.9464 16.0355 24.9843 18.3968Z" fill="#C22128"/>
</svg>
