<svg width="115" height="94" viewBox="0 0 115 94" fill="none" xmlns="http://www.w3.org/2000/svg">
<path d="M103.5 0H11.5C5.15775 0 0 5.26987 0 11.75V82.25C0 88.7301 5.15775 94 11.5 94H103.5C109.842 94 115 88.7301 115 82.25V11.75C115 5.26987 109.842 0 103.5 0ZM25.875 17.625C28.1625 17.625 30.3563 18.5535 31.9738 20.2061C33.5913 21.8588 34.5 24.1003 34.5 26.4375C34.5 28.7747 33.5913 31.0162 31.9738 32.6689C30.3563 34.3215 28.1625 35.25 25.875 35.25C23.5875 35.25 21.3937 34.3215 19.7762 32.6689C18.1587 31.0162 17.25 28.7747 17.25 26.4375C17.25 24.1003 18.1587 21.8588 19.7762 20.2061C21.3937 18.5535 23.5875 17.625 25.875 17.625ZM57.5 76.375H17.25L40.25 47L48.875 58.75L66.125 35.25L97.75 76.375H57.5Z" fill="white"/>
</svg>
